<svg xmlns="http://www.w3.org/2000/svg" class="instagram-icon" style="outline:0" viewBox="0 0 64 64" fill="currentColor" aria-hidden="true"><path d="M47,13.2c-1.9,0-3.5,1.6-3.5,3.6s1.6,3.6,3.5,3.6s3.5-1.6,3.5-3.6S49,13.2,47,13.2 L47,13.2z M31.9,23c-5.1,0-9.3,4.3-9.3,9.5s4.2,9.5,9.3,9.5s9.3-4.3,9.3-9.5S37,23,31.9,23L31.9,23z M31.9,46.7 c-7.7,0-14-6.4-14-14.2s6.3-14.2,14-14.2s14,6.4,14,14.2S39.6,46.7,31.9,46.7L31.9,46.7z M15.7,8.8c-3.9,0-7,3.2-7,7.1v33.2 c0,3.9,3.1,7.1,7,7.1h32.7c3.9,0,7-3.2,7-7.1V15.9c0-3.9-3.1-7.1-7-7.1C48.4,8.8,15.7,8.8,15.7,8.8z M48.3,60.9H15.7 C9.2,60.9,4,55.6,4,49.1V15.9C4,9.4,9.2,4.1,15.7,4.1h32.7C54.8,4.1,60,9.4,60,15.9v33.2C60,55.6,54.8,60.9,48.3,60.9L48.3,60.9z"/></svg>