<svg xmlns="http://www.w3.org/2000/svg" class="twitter-icon" style="outline:0" viewBox="0 0 64 64" fill="currentColor" aria-hidden="true"><path d="M60,15.2c-2.1,0.9-4.3,1.5-6.6,1.7c2.4-1.4,4.2-3.6,5.1-6.1c-2.2,1.3-4.7,2.2-7.3,2.7 c-2.1-2.2-5.1-3.5-8.4-3.5c-6.3,0-11.5,5-11.5,11.1c0,0.9,0.1,1.7,0.3,2.5C22,23.2,13.6,18.8,7.9,12c-1,1.6-1.6,3.5-1.6,5.6 c0,3.9,2,7.3,5.1,9.2c-1.9-0.1-3.7-0.6-5.2-1.4v0.1c0,5.4,4,9.9,9.2,10.9c-1,0.3-2,0.4-3,0.4c-0.7,0-1.5-0.1-2.2-0.2 c1.5,4.4,5.7,7.6,10.7,7.7c-3.9,3-8.9,4.8-14.3,4.8c-0.9,0-1.8-0.1-2.7-0.2c5.1,3.2,11.1,5,17.6,5c21.1,0,32.7-16.9,32.7-31.6 c0-0.5,0-1,0-1.4C56.5,19.4,58.5,17.4,60,15.2"/></svg>